<?xml version="1.0" standalone="no"?>
<!DOCTYPE svg PUBLIC "-//W3C//DTD SVG 20010904//EN"
 "http://www.w3.org/TR/2001/REC-SVG-20010904/DTD/svg10.dtd">
<svg version="1.0" xmlns="http://www.w3.org/2000/svg"
 width="512.000000pt" height="512.000000pt" viewBox="0 0 512.000000 512.000000"
 preserveAspectRatio="xMidYMid meet">

<g transform="translate(0.000000,512.000000) scale(0.100000,-0.100000)"
fill="#000000" stroke="none">
<path d="M3105 5109 c-70 -17 -109 -68 -129 -169 -4 -21 -16 -28 -72 -44 -36
-10 -103 -37 -148 -60 l-81 -41 -55 32 c-97 58 -152 42 -276 -79 -84 -82 -124
-143 -124 -189 0 -14 11 -47 24 -72 l23 -47 -849 0 c-740 0 -858 -2 -919 -16
-128 -29 -250 -134 -300 -261 l-24 -58 -3 -1541 -2 -1541 -35 -6 c-50 -8 -94
-43 -116 -91 -28 -61 -27 -360 1 -470 29 -113 73 -190 160 -276 86 -87 163
-131 276 -160 76 -20 118 -20 2104 -20 1970 0 2029 1 2102 19 118 30 193 73
278 160 87 87 132 165 160 277 28 110 29 409 1 470 -22 48 -66 83 -116 91
l-35 6 0 1516 c0 1339 -2 1524 -16 1576 -27 108 -90 194 -187 256 -84 54 -161
69 -361 69 l-166 0 20 37 c26 50 26 118 -1 163 -34 56 -185 197 -226 210 -50
17 -109 6 -158 -28 l-41 -29 -70 35 c-38 20 -105 48 -149 63 l-80 27 -12 53
c-14 61 -37 97 -84 124 -27 16 -55 20 -154 22 -66 1 -138 -2 -160 -8z m205
-168 c20 -6 26 -16 35 -66 15 -84 28 -102 78 -115 23 -6 60 -16 82 -22 61 -15
153 -56 226 -99 72 -43 87 -46 129 -24 27 14 30 14 44 -7 26 -37 19 -74 -25
-137 l-41 -58 31 -49 c39 -64 84 -171 107 -254 10 -36 22 -68 27 -71 5 -4 33
-9 62 -13 29 -3 61 -9 70 -12 33 -13 45 -59 45 -178 0 -145 -10 -160 -114
-179 l-69 -13 -32 -100 c-17 -55 -52 -140 -78 -188 l-47 -88 40 -57 c44 -63
50 -100 21 -137 -16 -21 -20 -22 -37 -9 -27 21 -74 18 -109 -6 -65 -44 -169
-90 -267 -119 -116 -33 -132 -47 -142 -117 -13 -87 -7 -83 -106 -83 l-88 0
-12 69 c-14 85 -33 104 -120 125 -82 19 -194 65 -270 111 -32 19 -69 35 -82
35 -14 0 -51 -18 -82 -40 l-58 -40 -37 30 c-21 16 -50 45 -64 63 l-26 34 40
58 c21 32 39 69 39 83 0 13 -16 50 -35 82 -50 83 -84 163 -109 259 -25 99 -42
116 -133 132 l-63 11 0 89 0 88 38 6 c122 21 129 28 161 148 24 88 68 190 111
258 39 59 38 91 -3 148 -18 25 -36 51 -40 57 -7 13 50 84 94 114 l29 22 51
-37 c64 -46 94 -51 139 -26 119 70 196 102 336 140 56 15 73 38 86 114 9 55
14 67 32 70 33 7 109 6 136 -2z m-1100 -683 c-1 -2 -11 -34 -24 -73 -23 -69
-24 -70 -64 -77 -55 -9 -97 -33 -124 -68 -22 -30 -22 -30 -122 -30 -122 0
-167 -11 -213 -54 -28 -26 -38 -45 -47 -90 l-12 -57 -73 -25 c-40 -13 -105
-40 -146 -59 -40 -19 -76 -35 -79 -35 -3 0 -27 14 -53 30 -97 62 -170 35 -307
-111 -107 -116 -118 -174 -51 -273 l24 -35 -44 -93 c-24 -51 -51 -118 -60
-149 l-18 -56 -56 -11 c-42 -9 -65 -21 -88 -44 -48 -49 -55 -80 -55 -218 0
-138 7 -169 55 -218 23 -23 46 -35 88 -44 l56 -11 18 -56 c9 -31 37 -98 60
-149 l44 -93 -29 -45 c-61 -97 -49 -151 57 -265 41 -43 95 -92 121 -109 42
-28 53 -31 104 -28 42 3 65 11 93 32 l37 28 86 -40 c48 -22 117 -49 153 -61
l67 -22 6 -50 c8 -62 57 -120 114 -137 50 -15 244 -15 297 -1 56 16 99 66 116
134 l14 57 60 19 c33 11 99 38 146 60 l86 41 48 -31 c56 -36 116 -41 170 -15
44 20 192 169 216 216 32 62 22 122 -33 200 -10 15 -7 29 21 85 19 38 46 104
61 148 l27 79 49 11 c64 15 88 28 114 65 21 30 22 30 118 30 53 0 115 5 136
10 73 17 120 69 134 150 l7 42 80 27 c44 15 111 42 148 61 61 31 70 33 90 20
115 -74 172 -68 281 31 157 142 187 233 110 336 l-24 32 40 83 c23 46 50 113
61 150 l21 67 44 7 c50 7 97 36 127 75 24 34 38 147 30 254 -9 128 -55 187
-155 201 l-45 6 -21 67 c-12 37 -22 70 -22 74 0 4 49 7 109 7 l109 0 36 -41
c19 -23 43 -62 53 -88 17 -43 18 -129 21 -1573 l2 -1528 -2135 0 -2135 0 2
1518 c3 1514 3 1517 24 1562 26 56 76 107 129 131 38 18 88 19 878 19 460 0
837 -1 837 -2z m-248 -496 c8 -112 50 -163 150 -186 l50 -11 27 -80 c15 -44
39 -103 54 -132 15 -29 27 -55 27 -58 0 -3 -19 7 -42 21 -23 15 -78 41 -123
57 -75 29 -88 31 -220 31 -126 0 -148 -2 -221 -27 -278 -93 -467 -355 -467
-647 0 -261 140 -490 373 -609 107 -54 186 -74 305 -74 121 -1 198 17 315 74
69 34 101 58 171 129 137 137 199 285 199 478 0 79 3 94 18 99 9 4 34 18 55
31 l38 25 87 -41 c48 -23 115 -49 149 -59 66 -19 73 -29 73 -109 0 -30 -3 -34
-37 -39 -74 -13 -110 -25 -125 -42 -9 -10 -27 -61 -42 -113 -15 -53 -51 -140
-82 -198 -29 -57 -54 -115 -54 -130 0 -14 18 -51 39 -82 l40 -57 -63 -62 -63
-62 -58 40 c-32 23 -70 41 -84 41 -14 0 -53 -16 -86 -36 -77 -47 -176 -88
-264 -109 -89 -22 -109 -43 -123 -129 l-11 -66 -88 0 c-98 0 -92 -4 -105 83
-10 70 -26 84 -142 117 -98 29 -202 75 -267 119 -46 31 -81 27 -148 -20 l-59
-42 -59 59 c-32 32 -59 62 -59 67 0 5 15 30 34 56 54 74 55 89 4 178 -57 100
-82 159 -107 258 -12 49 -28 86 -40 96 -11 9 -48 22 -83 28 -34 6 -65 16 -70
23 -10 16 -10 139 0 155 4 6 34 16 66 22 79 15 103 32 116 83 31 120 46 161
101 266 68 131 68 138 13 214 -41 56 -40 61 35 131 l51 48 57 -41 c70 -50 98
-51 173 -5 76 46 181 89 270 111 83 20 104 41 114 111 13 87 8 83 100 83 l83
0 5 -68z m-340 -2999 c7 -131 63 -230 165 -290 88 -51 109 -53 773 -53 664 0
685 2 773 53 102 60 158 159 165 290 l4 87 639 0 639 0 0 -152 c0 -169 -13
-245 -56 -331 -34 -67 -86 -131 -137 -168 l-40 -29 -1976 0 c-1221 0 -1999 4
-2035 10 -78 13 -174 59 -229 109 -58 54 -113 159 -126 241 -6 36 -11 122 -11
193 l0 127 724 0 724 0 4 -87z"/>
<path d="M3145 4519 c-153 -23 -271 -84 -385 -199 -146 -145 -206 -298 -198
-505 8 -183 71 -329 198 -455 126 -127 272 -190 455 -198 206 -8 359 52 506
198 138 138 202 291 202 485 0 208 -84 386 -245 522 -142 121 -352 181 -533
152z m191 -180 c80 -14 189 -69 247 -125 213 -204 221 -519 17 -725 -102 -104
-216 -151 -363 -150 -225 0 -418 145 -481 360 -23 78 -21 213 4 293 75 243
323 393 576 347z"/>
<path d="M3189 4179 c-109 -17 -204 -86 -255 -186 -26 -52 -29 -68 -29 -153 0
-81 4 -103 25 -145 83 -171 287 -245 455 -167 109 52 174 137 197 260 9 50 8
72 -6 129 -44 179 -207 290 -387 262z"/>
<path d="M392 675 c-68 -29 -71 -118 -5 -153 59 -32 123 7 123 76 0 64 -58
102 -118 77z"/>
<path d="M732 675 c-59 -25 -70 -89 -23 -136 46 -46 106 -37 136 21 18 35 12
71 -18 98 -30 27 -59 32 -95 17z"/>
<path d="M1075 677 c-31 -15 -55 -52 -55 -88 0 -11 13 -34 29 -50 l29 -29 160
0 c155 0 160 1 186 25 34 32 35 83 2 122 l-24 28 -149 3 c-108 1 -156 -2 -178
-11z"/>
</g>
</svg>
